<?xml version="1.0" standalone="no"?>
<!DOCTYPE svg PUBLIC "-//W3C//DTD SVG 20010904//EN"
 "http://www.w3.org/TR/2001/REC-SVG-20010904/DTD/svg10.dtd">
<svg version="1.0" xmlns="http://www.w3.org/2000/svg"
 width="580.000000pt" height="580.000000pt" viewBox="0 0 580.000000 580.000000"
 preserveAspectRatio="xMidYMid meet">
<metadata>
Created by potrace 1.14, written by Peter Selinger 2001-2017
</metadata>
<g transform="translate(0.000000,580.000000) scale(0.100000,-0.100000)"
fill="#000000" stroke="none">
<path d="M2475 5321 c-2 -2 -35 -5 -72 -7 -412 -22 -781 -158 -1103 -407 -92
-71 -265 -247 -337 -342 -107 -142 -201 -311 -264 -473 -35 -91 -85 -276 -94
-347 -3 -27 -8 -59 -10 -70 -3 -11 -7 -33 -10 -50 -6 -37 -7 -351 -1 -385 3
-14 7 -43 10 -65 29 -251 135 -542 279 -770 145 -229 377 -454 618 -601 200
-122 463 -221 664 -249 65 -10 88 -13 130 -20 22 -3 96 -6 165 -7 l125 -1 60
-46 c237 -183 570 -395 840 -535 210 -110 491 -220 650 -256 28 -7 59 -14 70
-16 43 -10 135 -24 179 -28 67 -5 81 15 80 113 0 93 -30 209 -90 356 -57 138
-75 200 -119 400 -19 88 -38 170 -40 182 -4 18 1 25 27 36 47 20 215 123 270
166 25 20 61 47 79 61 71 55 252 242 299 310 13 19 27 37 30 40 22 18 121 185
169 285 83 170 148 373 167 518 3 23 9 59 14 80 10 48 10 407 0 456 -5 20 -11
57 -14 82 -17 131 -100 391 -160 506 -15 26 -26 51 -26 54 0 14 -105 179 -167
263 -84 113 -250 281 -363 366 -70 53 -283 190 -295 190 -2 0 -32 13 -67 30
-193 91 -503 170 -667 170 -22 0 -41 3 -41 8 0 7 -978 11 -985 3z"/>
</g>
</svg>
